<svg xmlns="http://www.w3.org/2000/svg" width="1280" height="780" viewBox="0 0 1280 780" role="img" aria-label="Print da tela principal da Calculadora CDB">
  <rect width="1280" height="780" fill="#f4f7f1"/>
  <path d="M0 0h1280v780H0z" fill="url(#bg)"/>
  <defs>
    <linearGradient id="bg" x1="0" x2="1" y1="0" y2="1">
      <stop offset="0" stop-color="#d9f0e8"/>
      <stop offset="0.55" stop-color="#f4f7f1"/>
      <stop offset="1" stop-color="#e6f6cc"/>
    </linearGradient>
  </defs>
  <g transform="translate(90 90)">
    <rect x="0" y="0" width="1100" height="600" rx="10" fill="#ffffff" opacity=".55"/>
    <text x="40" y="90" font-family="Manrope, Arial, sans-serif" font-size="22" font-weight="800" fill="#0f766e">SIMULADOR DE RENDA FIXA</text>
    <text x="40" y="170" font-family="Manrope, Arial, sans-serif" font-size="72" font-weight="800" fill="#162018">Calculadora CDB</text>
    <text x="40" y="225" font-family="Manrope, Arial, sans-serif" font-size="24" fill="#62705f">Valor bruto, liquido, imposto e lucro com juros compostos.</text>
    <g transform="translate(40 280)">
      <rect width="150" height="56" rx="8" fill="#ffffff" stroke="#d9e2d4"/>
      <text x="22" y="36" font-family="Manrope, Arial, sans-serif" font-size="18" fill="#162018"><tspan font-weight="800">CDI</tspan> 0,9%</text>
      <rect x="170" width="150" height="56" rx="8" fill="#ffffff" stroke="#d9e2d4"/>
      <text x="192" y="36" font-family="Manrope, Arial, sans-serif" font-size="18" fill="#162018"><tspan font-weight="800">TB</tspan> 108%</text>
      <rect x="340" width="190" height="56" rx="8" fill="#ffffff" stroke="#d9e2d4"/>
      <text x="362" y="36" font-family="Manrope, Arial, sans-serif" font-size="18" fill="#162018"><tspan font-weight="800">IR</tspan> regressivo</text>
    </g>
    <g transform="translate(720 70)">
      <rect width="310" height="300" rx="8" fill="#ffffff" stroke="#d9e2d4"/>
      <rect x="28" y="42" width="254" height="58" rx="6" fill="#f8faf7" stroke="#d9e2d4"/>
      <text x="46" y="78" font-family="Manrope, Arial, sans-serif" font-size="18" fill="#62705f">R$ 1.000,00</text>
      <rect x="28" y="122" width="254" height="58" rx="6" fill="#f8faf7" stroke="#d9e2d4"/>
      <text x="46" y="158" font-family="Manrope, Arial, sans-serif" font-size="18" fill="#62705f">12 meses</text>
      <rect x="28" y="210" width="254" height="58" rx="8" fill="#0f766e"/>
      <text x="100" y="246" font-family="Manrope, Arial, sans-serif" font-size="19" font-weight="800" fill="#ffffff">Calcular</text>
    </g>
    <g transform="translate(40 430)">
      <rect width="245" height="110" rx="8" fill="#ffffff" stroke="#d9e2d4"/>
      <text x="22" y="42" font-family="Manrope, Arial, sans-serif" font-size="16" font-weight="800" fill="#62705f">Valor bruto</text>
      <text x="22" y="78" font-family="Manrope, Arial, sans-serif" font-size="28" font-weight="800" fill="#162018">R$ 1.123,08</text>
      <rect x="270" width="245" height="110" rx="8" fill="#ffffff" stroke="#d9e2d4"/>
      <text x="292" y="42" font-family="Manrope, Arial, sans-serif" font-size="16" font-weight="800" fill="#62705f">Valor liquido</text>
      <text x="292" y="78" font-family="Manrope, Arial, sans-serif" font-size="28" font-weight="800" fill="#1b8f4d">R$ 1.098,47</text>
      <rect x="540" width="245" height="110" rx="8" fill="#ffffff" stroke="#d9e2d4"/>
      <text x="562" y="42" font-family="Manrope, Arial, sans-serif" font-size="16" font-weight="800" fill="#62705f">Imposto</text>
      <text x="562" y="78" font-family="Manrope, Arial, sans-serif" font-size="28" font-weight="800" fill="#b45309">R$ 24,62</text>
      <rect x="810" width="245" height="110" rx="8" fill="#ffffff" stroke="#d9e2d4"/>
      <text x="832" y="42" font-family="Manrope, Arial, sans-serif" font-size="16" font-weight="800" fill="#62705f">Lucro bruto</text>
      <text x="832" y="78" font-family="Manrope, Arial, sans-serif" font-size="28" font-weight="800" fill="#1b8f4d">R$ 123,08</text>
    </g>
  </g>
</svg>
